# xmcd
#
# Track frame offsets:
#	150
#	10861
#	26691
#	42850
#	55347
#	68565
#	86595
#	100719
#	110652
#	128025
#	140955
#	153339
#	165053
#	179613
#	190545
#	202677
#	215828
#	226395
#
# Disc length: 3199 seconds
#
# Revision: 1
# Processed by: cddbd v1.5PL3 Copyright (c) Steve Scherf et al.
# Submitted via: audiograbber 1.82.01
#
DISCID=ec0c7d12
DTITLE=Errol Dixon - Midnight Express
DYEAR=2003
DGENRE=Blues
TTITLE0=Errol Dixon - Nite Life Boogie
TTITLE1=Errol Dixon - Its True I Love You
TTITLE2=Errol Dixon - Blue Berry Hill
TTITLE3=Errol Dixon - Blues Beat
TTITLE4=Errol Dixon - Midnight Express
TTITLE5=Errol Dixon - I Still Love You
TTITLE6=Errol Dixon - You Are My Sunshine
TTITLE7=Errol Dixon - Jumping The Boogie
TTITLE8=Errol Dixon - The Promise
TTITLE9=Errol Dixon - More Blues
TTITLE10=Errol Dixon - Bad News
TTITLE11=Errol Dixon - Rocking And Reeling
TTITLE12=Errol Dixon - The Day Before Yesterday
TTITLE13=Errol Dixon - I Feel Good
TTITLE14=Errol Dixon - How Can I Forget You
TTITLE15=Errol Dixon - Saving My Love For You
TTITLE16=Errol Dixon - Dance Mr. Blues
TTITLE17=Errol Dixon - You Don't Know What Love Is
EXTD=
EXTT0=
EXTT1=
EXTT2=
EXTT3=
EXTT4=
EXTT5=
EXTT6=
EXTT7=
EXTT8=
EXTT9=
EXTT10=
EXTT11=
EXTT12=
EXTT13=
EXTT14=
EXTT15=
EXTT16=
EXTT17=
PLAYORDER=
